# xmcd
#
# Track frame offsets: 
#        183
#        16648
#        31098
#        49250
#        66570
#        81098
#        98410
#        109328
#        122628
#        137833
#        154863
#        169850
#        185545
#        202925
#
# Disc length: 2929 seconds
#
# Revision: 5
# Processed by: cddbd v1.5.2PL0 Copyright (c) Steve Scherf et al.
# Submitted via: ExactAudioCopy v0.99pb5
#
DISCID=b40b6f0e
DTITLE=Various Artist - Happy Music - For Happy People - CD 1
DYEAR=1991
DGENRE=Pop
TTITLE0=Al Bano and Romina Power - Vincerai
TTITLE1=Tony Christie - September love
TTITLE2=BZN - Help me
TTITLE3=New Mixed Emotions - Lonely lover
TTITLE4=Audrey Landers - Monte Carlo
TTITLE5=Bellamy Brothers - Fly me to Eden
TTITLE6=Roger Whittaker - New world in the morning
TTITLE7=Tol and Tol - Siciliano
TTITLE8=Gerard Joling - Tu solo tu
TTITLE9=Peter Kent and Luisa Fernandez - Illusion (Ilusion)
TTITLE10=Rosanna Rocci - Theresa
TTITLE11=Angelo Fabiani - Arrivederci
TTITLE12=Dario Farina Golden Sound Academy - Moon affair
TTITLE13=Chris Norman - Stay with me tonight
EXTD=Happy Music for happy people
EXTT0=
EXTT1=
EXTT2=
EXTT3=
EXTT4=
EXTT5=
EXTT6=
EXTT7=
EXTT8=
EXTT9=
EXTT10=
EXTT11=
EXTT12=
EXTT13=
PLAYORDER=
